<svg version="1.1" preserveAspectRatio="none" xmlns="http://www.w3.org/2000/svg" width="500" height="500" viewBox="0 0 500 500"><rect width="100%" height="100%" fill="#0C0C0C" fill-opacity="1"/><svg viewBox="-4.8394 145.875 384.679 60" width="333" height="51.939409221714726" x="83.5px" y="224.0303px" xmlns="http://www.w3.org/2000/svg" xmlns:xlink="http://www.w3.org/1999/xlink" preserveAspectRatio="none"><defs></defs><style>.background-floo {flood-color:#0C0C0C;flood-opacity:1;}.companyName {fill:#3A3AC6;fill-opacity:1;}.icon3-str {stroke:#F1F1F1;stroke-opacity:1;}</style><g opacity="1" transform="rotate(0 -4.8394 145.875)">
<svg width="384.679" height="60" x="-4.8394" y="145.875" version="1.1" preserveAspectRatio="none" viewBox="0 -28.8 186.44 29.08">
  <g transform="matrix(1 0 0 1 0 0)" class="companyName"><path id="id-D6z1nYkh7" d="M21.56 0L20.16-4.28L10.72-4.28L9.32 0L0 0L10.36-28.32L20.60-28.32L30.92 0L21.56 0ZM12.88-10.96L18-10.96L15.44-18.84L12.88-10.96Z M51.88-14.52Q54.44-13.92 55.86-12.06Q57.28-10.20 57.28-7.76L57.28-7.76Q57.28-4.04 54.82-2.02Q52.36 0 47.76 0L47.76 0L32.92 0L32.92-28.32L47.36-28.32Q51.68-28.32 54.16-26.44Q56.64-24.56 56.64-20.96L56.64-20.96Q56.64-18.48 55.34-16.78Q54.04-15.08 51.88-14.52L51.88-14.52ZM41.80-21.28L41.80-17.28L45.24-17.28Q46.44-17.28 47.02-17.76Q47.60-18.24 47.60-19.24L47.60-19.24Q47.60-20.28 47.02-20.78Q46.44-21.28 45.24-21.28L45.24-21.28L41.80-21.28ZM45.84-7.12Q47.04-7.12 47.62-7.58Q48.20-8.04 48.20-9.08L48.20-9.08Q48.20-11.12 45.84-11.12L45.84-11.12L41.80-11.12L41.80-7.12L45.84-7.12Z M60.28-28.32L69.16-28.32L69.16 0L60.28 0L60.28-28.32Z M100.32-28.32L100.32 0L91.44 0L82.04-14.24L82.04 0L73.16 0L73.16-28.32L82.04-28.32L91.44-13.84L91.44-28.32L100.32-28.32Z M123.88 0L122.48-4.28L113.04-4.28L111.64 0L102.32 0L112.68-28.32L122.92-28.32L133.24 0L123.88 0ZM115.20-10.96L120.32-10.96L117.76-18.84L115.20-10.96Z M157.12-8.36Q157.12-5.92 155.86-3.96Q154.60-2 152.20-0.86Q149.80 0.28 146.48 0.28L146.48 0.28Q141.40 0.28 138.10-2.10Q134.80-4.48 134.52-9.08L134.52-9.08L143.96-9.08Q144.16-6.64 146.12-6.64L146.12-6.64Q146.80-6.64 147.22-7Q147.64-7.36 147.64-8.04L147.64-8.04Q147.64-9.04 146.62-9.62Q145.60-10.20 143.32-10.96L143.32-10.96Q140.64-11.84 138.86-12.76Q137.08-13.68 135.76-15.48Q134.44-17.28 134.44-20.16L134.44-20.16Q134.44-22.92 135.86-24.86Q137.28-26.80 139.74-27.80Q142.20-28.80 145.28-28.80L145.28-28.80Q150.36-28.80 153.36-26.44Q156.36-24.08 156.64-19.64L156.64-19.64L147.08-19.64Q146.88-21.88 145.24-21.88L145.24-21.88Q144.68-21.88 144.32-21.54Q143.96-21.20 143.96-20.52L143.96-20.52Q143.96-19.60 144.98-19.02Q146-18.44 148.16-17.68L148.16-17.68Q150.88-16.72 152.66-15.78Q154.44-14.84 155.78-13.02Q157.12-11.20 157.12-8.36L157.12-8.36Z M177.56-28.32L186.44-28.32L186.44 0L177.56 0L177.56-11.04L169.12-11.04L169.12 0L160.24 0L160.24-28.32L169.12-28.32L169.12-18.12L177.56-18.12L177.56-28.32Z"/></g>
</svg>
</g></svg></svg>